<mxfile host="app.diagrams.net" modified="2023-05-30T00:34:28.347Z" agent="Mozilla/5.0 (Windows NT 10.0; Win64; x64) AppleWebKit/537.36 (KHTML, like Gecko) Chrome/113.0.0.0 Safari/537.36" etag="d-TA0Mkltr_qN3HKr4f4" version="21.3.5" type="github">
  <diagram name="PÃ¡gina-1" id="SmUo1-HSROI0GUzh0JgP">
    <mxGraphModel dx="1707" dy="490" grid="1" gridSize="10" guides="1" tooltips="1" connect="1" arrows="1" fold="1" page="1" pageScale="1" pageWidth="827" pageHeight="1169" math="0" shadow="0">
      <root>
        <mxCell id="0" />
        <mxCell id="1" parent="0" />
        <mxCell id="l-v04vRMyGCzLCZ29JPL-1" value="co" style="shape=folder;fontStyle=1;tabWidth=110;tabHeight=30;tabPosition=left;html=1;boundedLbl=1;labelInHeader=1;container=1;collapsible=0;whiteSpace=wrap;" parent="1" vertex="1">
          <mxGeometry x="-360" y="20" width="2600" height="1660" as="geometry" />
        </mxCell>
        <mxCell id="l-v04vRMyGCzLCZ29JPL-2" value="Text" style="html=1;strokeColor=none;resizeWidth=1;resizeHeight=1;fillColor=none;part=1;connectable=0;allowArrows=0;deletable=0;whiteSpace=wrap;" parent="l-v04vRMyGCzLCZ29JPL-1" vertex="1">
          <mxGeometry width="2398.0580426783836" height="952.0000000000003" relative="1" as="geometry">
            <mxPoint y="30" as="offset" />
          </mxGeometry>
        </mxCell>
        <mxCell id="l-v04vRMyGCzLCZ29JPL-3" value="edu" style="shape=folder;fontStyle=1;tabWidth=110;tabHeight=30;tabPosition=left;html=1;boundedLbl=1;labelInHeader=1;container=1;collapsible=0;whiteSpace=wrap;" parent="l-v04vRMyGCzLCZ29JPL-1" vertex="1">
          <mxGeometry x="75.73669064748202" y="89.99981651376147" width="2486.8532374100723" height="1488.624036697248" as="geometry" />
        </mxCell>
        <mxCell id="l-v04vRMyGCzLCZ29JPL-4" value="Text" style="html=1;strokeColor=none;resizeWidth=1;resizeHeight=1;fillColor=none;part=1;connectable=0;allowArrows=0;deletable=0;whiteSpace=wrap;" parent="l-v04vRMyGCzLCZ29JPL-3" vertex="1">
          <mxGeometry width="2263.036242166027" height="833.6294605504588" relative="1" as="geometry">
            <mxPoint y="30" as="offset" />
          </mxGeometry>
        </mxCell>
        <mxCell id="l-v04vRMyGCzLCZ29JPL-5" value="scan" style="shape=folder;fontStyle=1;tabWidth=110;tabHeight=30;tabPosition=left;html=1;boundedLbl=1;labelInHeader=1;container=1;collapsible=0;whiteSpace=wrap;" parent="l-v04vRMyGCzLCZ29JPL-3" vertex="1">
          <mxGeometry x="74.61399918464818" y="86.4330497876875" width="2339.42252667085" height="1303.0697385018434" as="geometry" />
        </mxCell>
        <mxCell id="l-v04vRMyGCzLCZ29JPL-6" value="Text" style="html=1;strokeColor=none;resizeWidth=1;resizeHeight=1;fillColor=none;part=1;connectable=0;allowArrows=0;deletable=0;whiteSpace=wrap;" parent="l-v04vRMyGCzLCZ29JPL-5" vertex="1">
          <mxGeometry width="2291.187010657018" height="849.6728705847638" relative="1" as="geometry">
            <mxPoint y="30" as="offset" />
          </mxGeometry>
        </mxCell>
        <mxCell id="l-v04vRMyGCzLCZ29JPL-7" value="cropscan" style="shape=folder;fontStyle=1;tabWidth=110;tabHeight=30;tabPosition=left;html=1;boundedLbl=1;labelInHeader=1;container=1;collapsible=0;whiteSpace=wrap;" parent="l-v04vRMyGCzLCZ29JPL-5" vertex="1">
          <mxGeometry x="59.65" y="67.28999999999999" width="2197.24" height="1168.49" as="geometry" />
        </mxCell>
        <mxCell id="l-v04vRMyGCzLCZ29JPL-8" value="Text" style="html=1;strokeColor=none;resizeWidth=1;resizeHeight=1;fillColor=none;part=1;connectable=0;allowArrows=0;deletable=0;whiteSpace=wrap;" parent="l-v04vRMyGCzLCZ29JPL-7" vertex="1">
          <mxGeometry width="2197.24" height="817.943" relative="1" as="geometry">
            <mxPoint y="30" as="offset" />
          </mxGeometry>
        </mxCell>
        <mxCell id="l-v04vRMyGCzLCZ29JPL-84" style="edgeStyle=orthogonalEdgeStyle;rounded=0;orthogonalLoop=1;jettySize=auto;html=1;exitX=0.75;exitY=1;exitDx=0;exitDy=0;exitPerimeter=0;entryX=0;entryY=0;entryDx=282.30547846644043;entryDy=91.14693845632512;entryPerimeter=0;" parent="l-v04vRMyGCzLCZ29JPL-7" source="l-v04vRMyGCzLCZ29JPL-11" target="l-v04vRMyGCzLCZ29JPL-81" edge="1">
          <mxGeometry relative="1" as="geometry" />
        </mxCell>
        <mxCell id="l-v04vRMyGCzLCZ29JPL-11" value="repository" style="shape=folder;fontStyle=1;tabWidth=110;tabHeight=30;tabPosition=left;html=1;boundedLbl=1;labelInHeader=1;container=1;collapsible=0;whiteSpace=wrap;" parent="l-v04vRMyGCzLCZ29JPL-7" vertex="1">
          <mxGeometry x="1936.8879340865515" y="531.558591491226" width="230.7966843414773" height="92.13748550519239" as="geometry" />
        </mxCell>
        <mxCell id="l-v04vRMyGCzLCZ29JPL-12" value="" style="html=1;strokeColor=none;resizeWidth=1;resizeHeight=1;fillColor=none;part=1;connectable=0;allowArrows=0;deletable=0;whiteSpace=wrap;" parent="l-v04vRMyGCzLCZ29JPL-11" vertex="1">
          <mxGeometry width="230.7966843414773" height="64.49623985363468" relative="1" as="geometry">
            <mxPoint y="30" as="offset" />
          </mxGeometry>
        </mxCell>
        <mxCell id="l-v04vRMyGCzLCZ29JPL-13" value="service" style="shape=folder;fontStyle=1;tabWidth=110;tabHeight=30;tabPosition=left;html=1;boundedLbl=1;labelInHeader=1;container=1;collapsible=0;whiteSpace=wrap;" parent="l-v04vRMyGCzLCZ29JPL-7" vertex="1">
          <mxGeometry x="1070" y="171.56" width="840" height="698.44" as="geometry" />
        </mxCell>
        <mxCell id="l-v04vRMyGCzLCZ29JPL-14" value="" style="html=1;strokeColor=none;resizeWidth=1;resizeHeight=1;fillColor=none;part=1;connectable=0;allowArrows=0;deletable=0;whiteSpace=wrap;" parent="l-v04vRMyGCzLCZ29JPL-13" vertex="1">
          <mxGeometry width="716.0011336684619" height="488.91073020092256" relative="1" as="geometry">
            <mxPoint x="120" y="30" as="offset" />
          </mxGeometry>
        </mxCell>
        <mxCell id="l-v04vRMyGCzLCZ29JPL-22" value="usecase" style="shape=folder;fontStyle=1;tabWidth=110;tabHeight=30;tabPosition=left;html=1;boundedLbl=1;labelInHeader=1;container=1;collapsible=0;whiteSpace=wrap;" parent="l-v04vRMyGCzLCZ29JPL-13" vertex="1">
          <mxGeometry x="452.31351358843335" y="52.81609195402299" width="329.4688556530279" height="306.33333333333326" as="geometry" />
        </mxCell>
        <mxCell id="l-v04vRMyGCzLCZ29JPL-23" value="Text" style="html=1;strokeColor=none;resizeWidth=1;resizeHeight=1;fillColor=none;part=1;connectable=0;allowArrows=0;deletable=0;whiteSpace=wrap;" parent="l-v04vRMyGCzLCZ29JPL-22" vertex="1">
          <mxGeometry width="329.4688556530278" height="214.4333333333333" relative="1" as="geometry">
            <mxPoint y="30" as="offset" />
          </mxGeometry>
        </mxCell>
        <mxCell id="l-v04vRMyGCzLCZ29JPL-24" value="&amp;lt;domain&amp;gt;" style="shape=folder;fontStyle=1;tabWidth=110;tabHeight=30;tabPosition=left;html=1;boundedLbl=1;labelInHeader=1;container=1;collapsible=0;whiteSpace=wrap;" parent="l-v04vRMyGCzLCZ29JPL-22" vertex="1">
          <mxGeometry x="29.951017598783398" y="47.86271544715447" width="238.22130676996025" height="191.22671544715442" as="geometry" />
        </mxCell>
        <mxCell id="l-v04vRMyGCzLCZ29JPL-25" value="" style="html=1;strokeColor=none;resizeWidth=1;resizeHeight=1;fillColor=none;part=1;connectable=0;allowArrows=0;deletable=0;whiteSpace=wrap;" parent="l-v04vRMyGCzLCZ29JPL-24" vertex="1">
          <mxGeometry width="238.22130676996025" height="133.85870081300808" relative="1" as="geometry">
            <mxPoint y="30" as="offset" />
          </mxGeometry>
        </mxCell>
        <mxCell id="l-v04vRMyGCzLCZ29JPL-61" style="edgeStyle=orthogonalEdgeStyle;rounded=0;orthogonalLoop=1;jettySize=auto;html=1;exitX=0;exitY=0;exitDx=55;exitDy=0;exitPerimeter=0;" parent="l-v04vRMyGCzLCZ29JPL-24" source="l-v04vRMyGCzLCZ29JPL-26" edge="1">
          <mxGeometry relative="1" as="geometry">
            <mxPoint x="237.73477898065312" y="69.31832629737357" as="targetPoint" />
            <Array as="points">
              <mxPoint x="76.61637066906115" y="71.82988505747122" />
            </Array>
          </mxGeometry>
        </mxCell>
        <mxCell id="l-v04vRMyGCzLCZ29JPL-26" value="implementation" style="shape=folder;fontStyle=1;tabWidth=110;tabHeight=30;tabPosition=left;html=1;boundedLbl=1;labelInHeader=1;container=1;collapsible=0;whiteSpace=wrap;" parent="l-v04vRMyGCzLCZ29JPL-24" vertex="1">
          <mxGeometry x="25.429367771572146" y="89.45763538510025" width="107.49887756855975" height="73.59719763442482" as="geometry" />
        </mxCell>
        <mxCell id="l-v04vRMyGCzLCZ29JPL-27" value="" style="html=1;strokeColor=none;resizeWidth=1;resizeHeight=1;fillColor=none;part=1;connectable=0;allowArrows=0;deletable=0;whiteSpace=wrap;" parent="l-v04vRMyGCzLCZ29JPL-26" vertex="1">
          <mxGeometry width="107.49887756855975" height="51.51803834409736" relative="1" as="geometry">
            <mxPoint y="30" as="offset" />
          </mxGeometry>
        </mxCell>
        <mxCell id="l-v04vRMyGCzLCZ29JPL-29" style="edgeStyle=orthogonalEdgeStyle;rounded=0;orthogonalLoop=1;jettySize=auto;html=1;exitX=0;exitY=0;exitDx=125.21621857919315;exitDy=50.58132199017949;exitPerimeter=0;entryX=0;entryY=0;entryDx=0;entryDy=102.39414634146341;entryPerimeter=0;" parent="l-v04vRMyGCzLCZ29JPL-13" source="l-v04vRMyGCzLCZ29JPL-20" target="l-v04vRMyGCzLCZ29JPL-24" edge="1">
          <mxGeometry relative="1" as="geometry" />
        </mxCell>
        <mxCell id="l-v04vRMyGCzLCZ29JPL-51" value="domain" style="shape=folder;fontStyle=1;tabWidth=110;tabHeight=30;tabPosition=left;html=1;boundedLbl=1;labelInHeader=1;container=1;collapsible=0;whiteSpace=wrap;" parent="l-v04vRMyGCzLCZ29JPL-13" vertex="1">
          <mxGeometry x="323.0805821676747" y="528.1609195402298" width="138.46332048625516" height="105.63218390804597" as="geometry" />
        </mxCell>
        <mxCell id="l-v04vRMyGCzLCZ29JPL-52" value="" style="html=1;strokeColor=none;resizeWidth=1;resizeHeight=1;fillColor=none;part=1;connectable=0;allowArrows=0;deletable=0;whiteSpace=wrap;" parent="l-v04vRMyGCzLCZ29JPL-51" vertex="1">
          <mxGeometry width="138.46332048625516" height="73.94252873563217" relative="1" as="geometry">
            <mxPoint y="30" as="offset" />
          </mxGeometry>
        </mxCell>
        <mxCell id="l-v04vRMyGCzLCZ29JPL-54" style="edgeStyle=orthogonalEdgeStyle;rounded=0;orthogonalLoop=1;jettySize=auto;html=1;exitX=0.5;exitY=1;exitDx=0;exitDy=0;exitPerimeter=0;entryX=0;entryY=0;entryDx=150;entryDy=65;entryPerimeter=0;" parent="l-v04vRMyGCzLCZ29JPL-13" source="l-v04vRMyGCzLCZ29JPL-26" target="l-v04vRMyGCzLCZ29JPL-51" edge="1">
          <mxGeometry relative="1" as="geometry" />
        </mxCell>
        <mxCell id="l-v04vRMyGCzLCZ29JPL-55" style="edgeStyle=orthogonalEdgeStyle;rounded=0;orthogonalLoop=1;jettySize=auto;html=1;exitX=0.75;exitY=1;exitDx=0;exitDy=0;exitPerimeter=0;entryX=0;entryY=0;entryDx=150;entryDy=82.5;entryPerimeter=0;" parent="l-v04vRMyGCzLCZ29JPL-13" source="l-v04vRMyGCzLCZ29JPL-24" target="l-v04vRMyGCzLCZ29JPL-51" edge="1">
          <mxGeometry relative="1" as="geometry" />
        </mxCell>
        <mxCell id="l-v04vRMyGCzLCZ29JPL-15" value="facade" style="shape=folder;fontStyle=1;tabWidth=110;tabHeight=30;tabPosition=left;html=1;boundedLbl=1;labelInHeader=1;container=1;collapsible=0;whiteSpace=wrap;" parent="l-v04vRMyGCzLCZ29JPL-13" vertex="1">
          <mxGeometry x="27.69266409725104" y="52.81609195402299" width="354.2537900200675" height="312.8825287356321" as="geometry" />
        </mxCell>
        <mxCell id="l-v04vRMyGCzLCZ29JPL-16" value="Text" style="html=1;strokeColor=none;resizeWidth=1;resizeHeight=1;fillColor=none;part=1;connectable=0;allowArrows=0;deletable=0;whiteSpace=wrap;" parent="l-v04vRMyGCzLCZ29JPL-15" vertex="1">
          <mxGeometry width="354.2537900200674" height="219.0177701149425" relative="1" as="geometry">
            <mxPoint y="30" as="offset" />
          </mxGeometry>
        </mxCell>
        <mxCell id="l-v04vRMyGCzLCZ29JPL-64" style="edgeStyle=orthogonalEdgeStyle;rounded=0;orthogonalLoop=1;jettySize=auto;html=1;exitX=0;exitY=0;exitDx=256.14196710497475;exitDy=112.65750537146062;exitPerimeter=0;" parent="l-v04vRMyGCzLCZ29JPL-15" source="l-v04vRMyGCzLCZ29JPL-17" edge="1">
          <mxGeometry relative="1" as="geometry">
            <mxPoint x="353.5425126746509" y="73.9425287356322" as="targetPoint" />
            <Array as="points">
              <mxPoint x="310" y="171" />
              <mxPoint x="307" y="172" />
              <mxPoint x="307" y="74" />
            </Array>
          </mxGeometry>
        </mxCell>
        <mxCell id="l-v04vRMyGCzLCZ29JPL-17" value="&amp;lt;domain&amp;gt;" style="shape=folder;fontStyle=1;tabWidth=110;tabHeight=30;tabPosition=left;html=1;boundedLbl=1;labelInHeader=1;container=1;collapsible=0;whiteSpace=wrap;" parent="l-v04vRMyGCzLCZ29JPL-15" vertex="1">
          <mxGeometry x="32.20414105089405" y="58.78372292682925" width="256.14196710497475" height="195.31501074292123" as="geometry" />
        </mxCell>
        <mxCell id="l-v04vRMyGCzLCZ29JPL-18" value="" style="html=1;strokeColor=none;resizeWidth=1;resizeHeight=1;fillColor=none;part=1;connectable=0;allowArrows=0;deletable=0;whiteSpace=wrap;" parent="l-v04vRMyGCzLCZ29JPL-17" vertex="1">
          <mxGeometry width="256.14196710497475" height="136.7205075200449" relative="1" as="geometry">
            <mxPoint y="30" as="offset" />
          </mxGeometry>
        </mxCell>
        <mxCell id="l-v04vRMyGCzLCZ29JPL-58" style="edgeStyle=orthogonalEdgeStyle;rounded=0;orthogonalLoop=1;jettySize=auto;html=1;exitX=0;exitY=0;exitDx=55;exitDy=0;exitPerimeter=0;entryX=0.83;entryY=0.159;entryDx=0;entryDy=0;entryPerimeter=0;" parent="l-v04vRMyGCzLCZ29JPL-17" source="l-v04vRMyGCzLCZ29JPL-20" target="l-v04vRMyGCzLCZ29JPL-17" edge="1">
          <mxGeometry relative="1" as="geometry">
            <Array as="points">
              <mxPoint x="67.38548263664417" y="78.16781609195401" />
              <mxPoint x="152.3096525348806" y="78.16781609195401" />
              <mxPoint x="152.3096525348806" y="57.0413793103448" />
              <mxPoint x="212.31042474559112" y="57.0413793103448" />
            </Array>
          </mxGeometry>
        </mxCell>
        <mxCell id="l-v04vRMyGCzLCZ29JPL-20" value="implementation" style="shape=folder;fontStyle=1;tabWidth=110;tabHeight=30;tabPosition=left;html=1;boundedLbl=1;labelInHeader=1;container=1;collapsible=0;whiteSpace=wrap;" parent="l-v04vRMyGCzLCZ29JPL-17" vertex="1">
          <mxGeometry x="16.811598558733962" y="89.0994718243566" width="115.5856893547186" height="75.1706549631608" as="geometry" />
        </mxCell>
        <mxCell id="l-v04vRMyGCzLCZ29JPL-21" value="" style="html=1;strokeColor=none;resizeWidth=1;resizeHeight=1;fillColor=none;part=1;connectable=0;allowArrows=0;deletable=0;whiteSpace=wrap;" parent="l-v04vRMyGCzLCZ29JPL-20" vertex="1">
          <mxGeometry width="115.5856893547186" height="52.61945847421256" relative="1" as="geometry">
            <mxPoint y="30" as="offset" />
          </mxGeometry>
        </mxCell>
        <mxCell id="l-v04vRMyGCzLCZ29JPL-63" style="edgeStyle=orthogonalEdgeStyle;rounded=0;orthogonalLoop=1;jettySize=auto;html=1;entryX=0;entryY=0;entryDx=0;entryDy=65;entryPerimeter=0;" parent="l-v04vRMyGCzLCZ29JPL-13" source="l-v04vRMyGCzLCZ29JPL-20" target="l-v04vRMyGCzLCZ29JPL-51" edge="1">
          <mxGeometry relative="1" as="geometry">
            <Array as="points">
              <mxPoint x="129.23243245383816" y="596.8218390804595" />
            </Array>
          </mxGeometry>
        </mxCell>
        <mxCell id="l-v04vRMyGCzLCZ29JPL-67" value="dto" style="shape=folder;fontStyle=1;tabWidth=110;tabHeight=30;tabPosition=left;html=1;boundedLbl=1;labelInHeader=1;container=1;collapsible=0;whiteSpace=wrap;" parent="l-v04vRMyGCzLCZ29JPL-7" vertex="1">
          <mxGeometry x="1080.0023206504634" y="891.5598685577812" width="282.30547846644043" height="152.29387691265023" as="geometry" />
        </mxCell>
        <mxCell id="l-v04vRMyGCzLCZ29JPL-68" value="" style="html=1;strokeColor=none;resizeWidth=1;resizeHeight=1;fillColor=none;part=1;connectable=0;allowArrows=0;deletable=0;whiteSpace=wrap;" parent="l-v04vRMyGCzLCZ29JPL-67" vertex="1">
          <mxGeometry width="282.30547846644043" height="106.60571383885515" relative="1" as="geometry">
            <mxPoint y="30" as="offset" />
          </mxGeometry>
        </mxCell>
        <mxCell id="1gG08kq2-E6tKTpTfZcw-6" style="edgeStyle=orthogonalEdgeStyle;rounded=0;orthogonalLoop=1;jettySize=auto;html=1;exitX=0;exitY=0;exitDx=55;exitDy=0;exitPerimeter=0;" parent="l-v04vRMyGCzLCZ29JPL-7" source="l-v04vRMyGCzLCZ29JPL-73" target="1gG08kq2-E6tKTpTfZcw-1" edge="1">
          <mxGeometry relative="1" as="geometry" />
        </mxCell>
        <mxCell id="l-v04vRMyGCzLCZ29JPL-73" value="api" style="shape=folder;fontStyle=1;tabWidth=110;tabHeight=30;tabPosition=left;html=1;boundedLbl=1;labelInHeader=1;container=1;collapsible=0;whiteSpace=wrap;" parent="l-v04vRMyGCzLCZ29JPL-7" vertex="1">
          <mxGeometry x="490.002664097251" y="121.55609195402297" width="354.2537900200675" height="312.8825287356321" as="geometry" />
        </mxCell>
        <mxCell id="l-v04vRMyGCzLCZ29JPL-74" value="" style="html=1;strokeColor=none;resizeWidth=1;resizeHeight=1;fillColor=none;part=1;connectable=0;allowArrows=0;deletable=0;whiteSpace=wrap;" parent="l-v04vRMyGCzLCZ29JPL-73" vertex="1">
          <mxGeometry width="354.2537900200674" height="219.0177701149425" relative="1" as="geometry">
            <mxPoint y="30" as="offset" />
          </mxGeometry>
        </mxCell>
        <mxCell id="l-v04vRMyGCzLCZ29JPL-76" value="controller" style="shape=folder;fontStyle=1;tabWidth=110;tabHeight=30;tabPosition=left;html=1;boundedLbl=1;labelInHeader=1;container=1;collapsible=0;whiteSpace=wrap;" parent="l-v04vRMyGCzLCZ29JPL-73" vertex="1">
          <mxGeometry x="32.2" y="110" width="256.14" height="170" as="geometry" />
        </mxCell>
        <mxCell id="l-v04vRMyGCzLCZ29JPL-77" value="" style="html=1;strokeColor=none;resizeWidth=1;resizeHeight=1;fillColor=none;part=1;connectable=0;allowArrows=0;deletable=0;whiteSpace=wrap;" parent="l-v04vRMyGCzLCZ29JPL-76" vertex="1">
          <mxGeometry width="256.14" height="119.00000000000004" relative="1" as="geometry">
            <mxPoint y="30" as="offset" />
          </mxGeometry>
        </mxCell>
        <mxCell id="l-v04vRMyGCzLCZ29JPL-79" value="&amp;lt;domain&amp;gt;" style="shape=folder;fontStyle=1;tabWidth=110;tabHeight=30;tabPosition=left;html=1;boundedLbl=1;labelInHeader=1;container=1;collapsible=0;whiteSpace=wrap;" parent="l-v04vRMyGCzLCZ29JPL-76" vertex="1">
          <mxGeometry x="16.811469449945065" y="77.55118335516663" width="115.5848016861061" height="65.42769700664435" as="geometry" />
        </mxCell>
        <mxCell id="l-v04vRMyGCzLCZ29JPL-80" value="" style="html=1;strokeColor=none;resizeWidth=1;resizeHeight=1;fillColor=none;part=1;connectable=0;allowArrows=0;deletable=0;whiteSpace=wrap;" parent="l-v04vRMyGCzLCZ29JPL-79" vertex="1">
          <mxGeometry width="115.5848016861061" height="45.79938790465104" relative="1" as="geometry">
            <mxPoint y="30" as="offset" />
          </mxGeometry>
        </mxCell>
        <mxCell id="1gG08kq2-E6tKTpTfZcw-3" value="Init" style="shape=folder;fontStyle=1;tabWidth=110;tabHeight=30;tabPosition=left;html=1;boundedLbl=1;labelInHeader=1;container=1;collapsible=0;whiteSpace=wrap;" parent="l-v04vRMyGCzLCZ29JPL-73" vertex="1">
          <mxGeometry x="168.34" y="50" width="120" height="68" as="geometry" />
        </mxCell>
        <mxCell id="1gG08kq2-E6tKTpTfZcw-4" value="" style="html=1;strokeColor=none;resizeWidth=1;resizeHeight=1;fillColor=none;part=1;connectable=0;allowArrows=0;deletable=0;whiteSpace=wrap;" parent="1gG08kq2-E6tKTpTfZcw-3" vertex="1">
          <mxGeometry width="120" height="47.6" relative="1" as="geometry">
            <mxPoint y="30" as="offset" />
          </mxGeometry>
        </mxCell>
        <mxCell id="l-v04vRMyGCzLCZ29JPL-81" value="entity" style="shape=folder;fontStyle=1;tabWidth=110;tabHeight=30;tabPosition=left;html=1;boundedLbl=1;labelInHeader=1;container=1;collapsible=0;whiteSpace=wrap;" parent="l-v04vRMyGCzLCZ29JPL-7" vertex="1">
          <mxGeometry x="1522.0023206504634" y="891.5598685577813" width="282.30547846644043" height="152.29387691265023" as="geometry" />
        </mxCell>
        <mxCell id="l-v04vRMyGCzLCZ29JPL-82" value="" style="html=1;strokeColor=none;resizeWidth=1;resizeHeight=1;fillColor=none;part=1;connectable=0;allowArrows=0;deletable=0;whiteSpace=wrap;" parent="l-v04vRMyGCzLCZ29JPL-81" vertex="1">
          <mxGeometry width="282.30547846644043" height="106.60571383885515" relative="1" as="geometry">
            <mxPoint y="30" as="offset" />
          </mxGeometry>
        </mxCell>
        <mxCell id="l-v04vRMyGCzLCZ29JPL-83" style="edgeStyle=orthogonalEdgeStyle;rounded=0;orthogonalLoop=1;jettySize=auto;html=1;exitX=0;exitY=0;exitDx=107.49887756855973;exitDy=51.79859881721241;exitPerimeter=0;entryX=0;entryY=0;entryDx=170.39834217073866;entryDy=30;entryPerimeter=0;" parent="l-v04vRMyGCzLCZ29JPL-7" source="l-v04vRMyGCzLCZ29JPL-26" target="l-v04vRMyGCzLCZ29JPL-11" edge="1">
          <mxGeometry relative="1" as="geometry" />
        </mxCell>
        <mxCell id="l-v04vRMyGCzLCZ29JPL-85" style="edgeStyle=orthogonalEdgeStyle;rounded=0;orthogonalLoop=1;jettySize=auto;html=1;exitX=0.75;exitY=1;exitDx=0;exitDy=0;exitPerimeter=0;entryX=0.487;entryY=0.201;entryDx=0;entryDy=0;entryPerimeter=0;" parent="l-v04vRMyGCzLCZ29JPL-7" source="l-v04vRMyGCzLCZ29JPL-26" target="l-v04vRMyGCzLCZ29JPL-81" edge="1">
          <mxGeometry relative="1" as="geometry" />
        </mxCell>
        <mxCell id="1gG08kq2-E6tKTpTfZcw-9" style="edgeStyle=orthogonalEdgeStyle;rounded=0;orthogonalLoop=1;jettySize=auto;html=1;exitX=0;exitY=0;exitDx=0;exitDy=0;exitPerimeter=0;entryX=0;entryY=0;entryDx=0;entryDy=121.72040768448767;entryPerimeter=0;" parent="l-v04vRMyGCzLCZ29JPL-7" source="1gG08kq2-E6tKTpTfZcw-1" target="l-v04vRMyGCzLCZ29JPL-67" edge="1">
          <mxGeometry relative="1" as="geometry">
            <Array as="points">
              <mxPoint x="1400" y="43" />
              <mxPoint x="410" y="43" />
              <mxPoint x="410" y="1013" />
            </Array>
          </mxGeometry>
        </mxCell>
        <mxCell id="1gG08kq2-E6tKTpTfZcw-11" style="edgeStyle=orthogonalEdgeStyle;rounded=0;orthogonalLoop=1;jettySize=auto;html=1;exitX=0;exitY=0;exitDx=282.31;exitDy=69.22;exitPerimeter=0;entryX=1.012;entryY=0.925;entryDx=0;entryDy=0;entryPerimeter=0;" parent="l-v04vRMyGCzLCZ29JPL-7" source="1gG08kq2-E6tKTpTfZcw-1" target="l-v04vRMyGCzLCZ29JPL-81" edge="1">
          <mxGeometry relative="1" as="geometry">
            <Array as="points">
              <mxPoint x="2180" y="132" />
              <mxPoint x="2180" y="1032" />
            </Array>
          </mxGeometry>
        </mxCell>
        <mxCell id="1gG08kq2-E6tKTpTfZcw-1" value="dto" style="shape=folder;fontStyle=1;tabWidth=110;tabHeight=30;tabPosition=left;html=1;boundedLbl=1;labelInHeader=1;container=1;collapsible=0;whiteSpace=wrap;" parent="l-v04vRMyGCzLCZ29JPL-7" vertex="1">
          <mxGeometry x="1400" y="63.120000000000005" width="282.31" height="108.44" as="geometry" />
        </mxCell>
        <mxCell id="1gG08kq2-E6tKTpTfZcw-2" value="" style="html=1;strokeColor=none;resizeWidth=1;resizeHeight=1;fillColor=none;part=1;connectable=0;allowArrows=0;deletable=0;whiteSpace=wrap;" parent="1gG08kq2-E6tKTpTfZcw-1" vertex="1">
          <mxGeometry width="282.31" height="75.908" relative="1" as="geometry">
            <mxPoint y="30" as="offset" />
          </mxGeometry>
        </mxCell>
        <mxCell id="1gG08kq2-E6tKTpTfZcw-5" style="edgeStyle=orthogonalEdgeStyle;rounded=0;orthogonalLoop=1;jettySize=auto;html=1;exitX=0;exitY=0;exitDx=115.5848016861061;exitDy=38.856924251661084;exitPerimeter=0;entryX=0;entryY=0;entryDx=0;entryDy=112.65750537146062;entryPerimeter=0;" parent="l-v04vRMyGCzLCZ29JPL-7" source="l-v04vRMyGCzLCZ29JPL-79" target="l-v04vRMyGCzLCZ29JPL-17" edge="1">
          <mxGeometry relative="1" as="geometry" />
        </mxCell>
        <mxCell id="1gG08kq2-E6tKTpTfZcw-7" style="edgeStyle=orthogonalEdgeStyle;rounded=0;orthogonalLoop=1;jettySize=auto;html=1;exitX=0.75;exitY=1;exitDx=0;exitDy=0;exitPerimeter=0;entryX=0;entryY=0;entryDx=0;entryDy=91.14693845632512;entryPerimeter=0;" parent="l-v04vRMyGCzLCZ29JPL-7" source="l-v04vRMyGCzLCZ29JPL-20" target="l-v04vRMyGCzLCZ29JPL-67" edge="1">
          <mxGeometry relative="1" as="geometry">
            <Array as="points">
              <mxPoint x="1010" y="447" />
              <mxPoint x="1010" y="983" />
            </Array>
          </mxGeometry>
        </mxCell>
        <mxCell id="1gG08kq2-E6tKTpTfZcw-8" style="edgeStyle=orthogonalEdgeStyle;rounded=0;orthogonalLoop=1;jettySize=auto;html=1;entryX=0;entryY=0;entryDx=196.15273923322022;entryDy=30;entryPerimeter=0;" parent="l-v04vRMyGCzLCZ29JPL-7" source="l-v04vRMyGCzLCZ29JPL-17" target="l-v04vRMyGCzLCZ29JPL-67" edge="1">
          <mxGeometry relative="1" as="geometry" />
        </mxCell>
        <mxCell id="1gG08kq2-E6tKTpTfZcw-10" style="edgeStyle=orthogonalEdgeStyle;rounded=0;orthogonalLoop=1;jettySize=auto;html=1;exitX=0.25;exitY=1;exitDx=0;exitDy=0;exitPerimeter=0;entryX=0.007;entryY=0.97;entryDx=0;entryDy=0;entryPerimeter=0;" parent="l-v04vRMyGCzLCZ29JPL-7" source="l-v04vRMyGCzLCZ29JPL-79" target="l-v04vRMyGCzLCZ29JPL-67" edge="1">
          <mxGeometry relative="1" as="geometry">
            <Array as="points">
              <mxPoint x="568" y="1039" />
            </Array>
          </mxGeometry>
        </mxCell>
        <mxCell id="l-v04vRMyGCzLCZ29JPL-65" value="" style="html=1;strokeColor=none;resizeWidth=1;resizeHeight=1;fillColor=none;part=1;connectable=0;allowArrows=0;deletable=0;whiteSpace=wrap;" parent="1" vertex="1">
          <mxGeometry x="545.9626564382902" y="744.1292565479257" width="152.4732352627364" height="66.531895660712" as="geometry" />
        </mxCell>
        <mxCell id="l-v04vRMyGCzLCZ29JPL-66" value="" style="html=1;strokeColor=none;resizeWidth=1;resizeHeight=1;fillColor=none;part=1;connectable=0;allowArrows=0;deletable=0;whiteSpace=wrap;" parent="1" vertex="1">
          <mxGeometry x="555.96" y="754.13" width="152.47" height="125.87" as="geometry" />
        </mxCell>
      </root>
    </mxGraphModel>
  </diagram>
</mxfile>
